<?xml version="1.0" encoding="utf-8"?>
<!-- Generator: Adobe Illustrator 26.0.2, SVG Export Plug-In . SVG Version: 6.00 Build 0)  -->
<svg version="1.1" id="Camada_1" xmlns="http://www.w3.org/2000/svg" xmlns:xlink="http://www.w3.org/1999/xlink" x="0px" y="0px"
	 viewBox="0 0 512 88.6" style="enable-background:new 0 0 512 88.6;" xml:space="preserve">
<style type="text/css">
	.st0{fill:#231F20;}
	.st1{fill:#EB3228;}
</style>
<g>
	<g>
		<path class="st0" d="M228.5,46.2c0-1.8-0.5-2.7-1.8-3.7c-1.6-1.1-4.1-2.3-6.4-3.2c-2.1-0.7-4.1-0.9-9.6-1.1
			c-4.6-0.2-11-0.2-18-0.2c-11.2,0-22.4,0-27.4,0c-0.2,0-0.2,0.2-0.2,0.2v11.9v11.9c0,0.2,0,0.2,0.2,0.2c5,0,16.2,0.2,27.4,0
			c6.8,0,13.5,0,18-0.2c5.3-0.2,7.5-0.5,9.6-1.1c2.3-0.9,4.8-2.1,6.4-3.2c1.4-0.9,1.8-1.8,1.8-3.7c0-1.1,0-3,0-4.1
			C228.8,48.9,228.8,47.3,228.5,46.2z M213.5,52.8c0,1.6-0.2,1.8-1.4,2.5c-0.5,0.2-1.1,0.7-1.8,0.9c-1.4,0.5-2.3,0.7-4.6,0.7
			c-3.4,0-7.5,0.2-12.3,0.2c-4.8,0-9.8,0-13.2,0c-0.2,0-0.2-0.2-0.2-0.2v-6.4v-6.4c0-0.2,0.2-0.2,0.2-0.2c3.4,0,8.2,0,13.2,0
			c4.8,0,8.9,0,12.3,0.2c2.3,0,3.2,0.2,4.6,0.7c0.7,0.2,1.1,0.5,1.8,0.9c1.1,0.7,1.4,0.9,1.4,2.5c0,0.7,0,1.8,0,2.5
			C213.5,51,213.5,52.1,213.5,52.8z M66.2,45.7c0-1.8-0.5-2.7-2.1-3.7c-1.8-1.1-4.3-2.3-6.8-3.2C55,38,53,38,47.3,37.7
			c-4.6-0.2-11.4-0.2-18.7-0.2c-11.4-0.2-23.1-0.2-28.3-0.2L0,37.5v12.3v12.6c0,0.2,0.2,0.2,0.2,0.2c5.3,0,16.9,0.2,28.5,0
			c7.3,0,13.9,0,18.7-0.2c5.5-0.2,7.8-0.5,10-1.1c2.5-0.9,5-2.1,6.8-3.2c1.4-0.9,1.8-1.8,2.1-3.7c0-1.1,0-3,0-4.3
			S66.4,46.9,66.2,45.7z M50.7,52.6c0,1.6-0.2,1.8-1.4,2.5c-0.5,0.2-1.1,0.7-1.8,0.9c-1.4,0.5-2.3,0.7-4.6,0.7
			c-3.7,0-8,0.2-12.8,0.2c-5,0-10.3,0-13.7,0c-0.2,0-0.2-0.2-0.2-0.2v-6.6v-6.6c0-0.2,0.2-0.2,0.2-0.2c3.4,0,8.7,0,13.7,0
			c4.8,0,9.1,0,12.8,0.2c2.3,0,3.4,0.2,4.6,0.7c0.7,0.2,1.4,0.5,1.8,0.9c1.1,0.7,1.4,0.9,1.4,2.5c0,0.7,0,1.8,0,2.5
			C50.7,50.7,50.7,51.9,50.7,52.6z M148.4,45.7c0-1.8-0.5-2.7-2.1-3.7c-1.6-1.1-4.3-2.3-6.6-3.2c-2.3-0.7-4.3-0.9-9.8-1.1
			c-4.6-0.2-7.1-0.2-14.4-0.2c-7.1,0-9.6,0-14.4,0.2c-5.5,0.2-7.8,0.5-9.8,1.1c-2.3,0.9-5,2.1-6.6,3.2c-1.4,0.9-1.8,1.8-2.1,3.7
			c0,1.1,0,3,0,4.3s0,3.2,0,4.3c0,1.8,0.5,2.7,2.1,3.7c1.6,1.1,4.3,2.3,6.6,3.2c2.3,0.7,4.3,0.9,9.8,1.1c4.6,0.2,7.1,0.2,14.4,0.2
			c7.1,0,9.6,0,14.4-0.2c5.5-0.2,7.8-0.5,9.8-1.1c2.3-0.9,5-2.1,6.6-3.2c1.4-0.9,1.8-1.8,2.1-3.7c0-1.1,0-3,0-4.3
			C148.4,48.7,148.4,46.9,148.4,45.7z M132.9,52.6c0,1.6-0.2,1.8-1.4,2.5c-0.5,0.2-1.1,0.7-1.8,0.9c-1.4,0.5-2.3,0.7-4.6,0.7
			c-3.4,0-4.6,0.2-9.4,0.2c-4.8,0-5.7,0-9.4-0.2c-2.3,0-3.4-0.2-4.6-0.7c-0.7-0.2-1.4-0.5-1.8-0.9c-1.1-0.7-1.4-0.9-1.4-2.5
			c0-0.7,0-1.8,0-2.5c0-0.7,0-1.8,0-2.5c0-1.6,0.2-1.8,1.4-2.5c0.5-0.2,1.1-0.7,1.8-0.9c1.4-0.5,2.3-0.7,4.6-0.7
			c3.4,0,4.6-0.2,9.4-0.2c4.8,0,5.7,0,9.4,0.2c2.3,0,3.4,0.2,4.6,0.7c0.7,0.2,1.4,0.5,1.8,0.9c1.1,0.7,1.4,0.9,1.4,2.5
			c0,0.7,0,1.8,0,2.5C132.9,51,132.9,51.9,132.9,52.6z M386.8,56.9v5c0,0.2-0.2,0.2-0.2,0.2h-60.3c-0.9,0-1.1-0.2-1.1-1.4V39.1
			c0-0.7,0.2-0.7,1.1-0.7h59.6c0.2,0,0.2,0.2,0.2,0.2v4.6c0,0.2-0.2,0.2-0.2,0.2l-44.3,0.2c-0.9,0-1.1,0.2-1.1,1.1v2.5
			c0,0.2,0.2,0.2,0.2,0.2l36.3,0.2c0.2,0,0.2,0.2,0.2,0.2v4.6c0,0.2-0.2,0.2-0.2,0.2L340.6,53c-0.2,0-0.2,0.2-0.2,0.2v2.3
			c0,0.9,0.2,1.1,1.1,1.1l45,0.2C386.8,56.7,386.8,56.9,386.8,56.9z M308.9,50.1v0.5v11.4c0,0.2,0,0.2-0.2,0.2c-5,0-16.2,0.2-27.4,0
			c-6.8,0-13.5,0-18-0.2c-5.3-0.2-7.5-0.5-9.6-1.1c-2.3-0.9-4.8-2.1-6.4-3.2c-1.4-0.9-1.8-1.8-1.8-3.7c0-1.1,0-3,0-4.1
			c0-1.4,0-3,0-4.1c0-1.8,0.5-2.7,1.8-3.7c1.6-1.1,4.1-2.3,6.4-3.2c2.1-0.7,4.1-0.9,9.6-1.1c4.6-0.2,11-0.2,18-0.2
			c11.2,0,22.1,0,27.2,0c0.2,0,0.2,0.2,0.2,0.2v5c0,0.2,0,0.2-0.2,0.2c-8.7,0-24.4,0-28.1,0c-4.8,0-8.9,0-12.3,0.2
			c-2.3,0-3.2,0.2-4.6,0.7c-0.7,0.2-1.1,0.5-1.8,0.9c-1.1,0.7-1.4,0.9-1.4,2.5c0,0.7,0,1.8,0,2.5c0,0.7,0,1.8,0,2.5
			c0,1.6,0.2,1.8,1.4,2.5c0.5,0.2,1.1,0.7,1.8,0.9c1.4,0.5,2.3,0.7,4.6,0.7c3.4,0,7.5,0.2,12.3,0.2s8.9,0,12.3,0
			c0.5,0,0.5-0.2,0.5-0.5v-0.5c0-0.2-0.2-0.5-0.5-0.7l-7.5-4.8c-0.2,0-0.2-0.5,0-0.5l0.7-0.5c0.7-0.5,1.1-0.5,1.8-0.5
			c4.1,0,18.5,0,20.1,0C308.7,49.1,308.9,49.1,308.9,50.1z"/>
	</g>
	<path class="st1" d="M472.2,48l-0.6-0.9c-0.2-0.3-0.4-0.6-0.7-1c-2.2-3.2-6.4-9.2-10.1-9.2s-7.9,6-10.1,9.2c-0.2,0.3-0.5,0.7-0.7,1
		l-0.6,0.9l-6.8-3.6l0.6-1.1C451,29.2,455.8,15,457.4,1.1l0.1-1.1h6.6l0.1,1.1c1.6,13.9,6.4,28.1,14.2,42.2l0.6,1.1L472.2,48z
		 M445.9,43.4l2.7,1.4c0,0,0,0,0.1-0.1c2.7-3.8,7.1-10.2,12.2-10.2c5.1,0,9.5,6.4,12.2,10.2c0,0,0,0,0.1,0.1l2.7-1.4
		c-7.4-13.7-12-27.5-13.8-41h-2.2C458,15.9,453.3,29.7,445.9,43.4z M508.7,88.6l-1-0.4c-12.8-5.5-27.5-8.5-43.7-8.8l-1.3,0l0.3-7.7
		l1.1-0.1c0.4,0,0.8-0.1,1.2-0.1c3.9-0.3,11.1-0.9,13-4.2l0,0c1.9-3.3-1.2-9.8-2.9-13.4c-0.2-0.4-0.3-0.7-0.5-1.1l-0.4-1l6.5-4.1
		l0.6,1.1c8.3,13.8,18.3,25.1,29.5,33.4l0.9,0.7L508.7,88.6z M465.3,76.9c15.6,0.4,29.8,3.3,42.4,8.6l1.1-1.9
		c-10.8-8.2-20.4-19.1-28.6-32.4l-2.5,1.6c0,0,0,0.1,0,0.1c2,4.2,5.3,11.3,2.8,15.6c-2.5,4.4-10.3,5-14.9,5.4c0,0-0.1,0-0.1,0
		L465.3,76.9z M412.9,88.6l-3.3-5.7l0.9-0.7c11.2-8.3,21.1-19.6,29.5-33.4l0.6-1.1l6.5,4.1l-0.4,1c-0.2,0.3-0.3,0.7-0.5,1.1
		c-1.7,3.5-4.8,10.1-2.9,13.4c1.9,3.3,9.1,3.9,13,4.2c0.4,0,0.8,0.1,1.2,0.1l1.1,0.1l0.3,7.7l-1.3,0c-16.2,0.3-30.9,3.3-43.7,8.8
		L412.9,88.6z M412.8,83.6l1.1,1.9c12.6-5.3,26.8-8.1,42.4-8.6l-0.1-3c0,0-0.1,0-0.1,0c-4.6-0.4-12.4-1-14.9-5.4
		c-2.5-4.4,0.8-11.4,2.8-15.6c0,0,0-0.1,0-0.1l-2.5-1.6C433.3,64.4,423.6,75.3,412.8,83.6z"/>
</g>
</svg>
